<svg id="Capa_1" data-name="Capa 1" xmlns="http://www.w3.org/2000/svg" viewBox="0 0 2325.06 1888.78"><defs><style>.cls-1{fill:#ffc000;}.cls-2{fill:#ffec36;}</style></defs><path class="cls-1" d="M841,0C376.52,0,0,423.67,0,946.3c0,428.63,253.27,790.7,600.59,907.07,15.71,5.26,33.58,2.07,45.61-9.31,18.91-17.9,45.91-100.89,45.91-100.89,17.3-48.77,27.5-70.44,18-100.45-6.25-19.77-19.71-36.47-36.37-48.81l-61.09-45.27h0c-170.52-108.58-287-327-287-578.91,0-360.13,238.09-652.08,531.78-652.08,195.68,0,372.78,113.42,459.4,302.88,35.6,77.87,51.66,163.47,43.93,248.75-8.42,93-41.11,151.83-67.37,178.1l-.19.08a166.17,166.17,0,0,1-135.31,63.65c-86.76-2.26-157.86-71.8-162-158.48a165.8,165.8,0,0,1,35.72-111.19l0,0c-115,123.53-90.94,258.43-87.4,296.13a169.91,169.91,0,0,0,7,32.77c31.39,103.44,120.09,178.89,226.72,196.57,49.79,8.26,99.75,9.44,137.09,3.41,75.77-12.23,304.22-76.81,367-424C1775,432,1305.43,0,841,0Z"/><path class="cls-2" d="M1724.46,35.41c-15.7-5.26-33.57-2.07-45.6,9.32C1660,62.63,1633,145.61,1633,145.61c-17.31,48.77-27.51,70.45-18,100.45,6.25,19.77,19.72,36.47,36.37,48.81l61.09,45.27c170.53,108.58,287,327,287,578.91,0,360.14-238.08,652.08-531.77,652.08-195.68,0-372.78-113.42-459.4-302.88-35.61-77.87-51.67-163.47-43.94-248.74,8.43-93,41.11-151.84,67.38-178.11l.19-.08a166.14,166.14,0,0,1,135.31-63.65c86.75,2.26,157.86,71.8,162,158.49a165.81,165.81,0,0,1-35.71,111.19l0,0q10.93-11.76,20.23-23.61c20.88-31.95,41.16-82.79,47.54-153.16,7.73-85.27-8.33-170.87-43.93-248.74-1.74-3.81-3.54-7.58-5.35-11.33,4.52,4.88-93.62-76.84-164.78-88.64-49.78-8.25-99.74-9.44-137.08-3.41-75.77,12.24-304.23,76.82-367,424-93,514.27,376.52,946.29,841,946.29s841-423.67,841-946.29C2325.06,513.85,2071.79,151.78,1724.46,35.41Z"/></svg>