<?xml version="1.0" encoding="utf-8"?>
<!-- Generator: Adobe Illustrator 25.2.1, SVG Export Plug-In . SVG Version: 6.00 Build 0)  -->
<svg version="1.1" id="Capa_1" xmlns="http://www.w3.org/2000/svg" xmlns:xlink="http://www.w3.org/1999/xlink" x="0px" y="0px"
	 viewBox="0 0 512 512" style="enable-background:new 0 0 512 512;" xml:space="preserve">
<style type="text/css">
	.st0{fill:#FFFFFF;}
	.st1{fill:#F9B331;}
</style>
<rect class="st0" width="512" height="512"/>
<path class="st1" d="M418.8,137.3c-17-18.5-71.6,27.8-100.6,11c-29.1-16.8-16.4-87.6-40.9-93.1C272.3,54,259.1,54,256,54
	c-3.1,0-16.3,0-21.2,1.1c-24.5,5.6-11.9,76.3-40.9,93.1c-29,16.8-83.6-29.5-100.6-11c-3.4,3.7-10,15.1-11.5,17.7
	c-1.5,2.6-8.1,14.1-9.6,19c-7.4,24,60,48.4,60,82c0,33.6-67.4,57.9-60,82c1.5,4.8,8.1,16.3,9.6,19c1.5,2.6,8.1,14,11.5,17.7
	c17,18.5,71.6-27.8,100.6-11c29.1,16.8,16.4,87.6,40.9,93.1c4.9,1.1,18.1,1.1,21.2,1.1c3.1,0,16.3,0,21.2-1.1
	c24.5-5.6,11.9-76.3,40.9-93.1c29-16.8,83.6,29.5,100.6,11c3.4-3.7,10-15.1,11.5-17.7c1.5-2.6,8.1-14.1,9.6-19c7.4-24-60-48.4-60-82
	s67.4-57.9,60-82c-1.5-4.8-8.1-16.3-9.6-19C428.8,152.5,422.2,141,418.8,137.3z"/>
<circle class="st0" cx="256" cy="256" r="63.1"/>
</svg>
