<?xml version="1.0" encoding="utf-8"?>
<!-- Generator: Adobe Illustrator 25.2.1, SVG Export Plug-In . SVG Version: 6.00 Build 0)  -->
<svg version="1.1" id="Capa_1" xmlns="http://www.w3.org/2000/svg" xmlns:xlink="http://www.w3.org/1999/xlink" x="0px" y="0px"
	 viewBox="0 0 512 512" style="enable-background:new 0 0 512 512;" xml:space="preserve">
<style type="text/css">
	.st0{fill:#FFFFFF;filter:url(#Adobe_OpacityMaskFilter);}
	.st1{mask:url(#a_1_);}
	.st2{fill:#338AF3;}
	.st3{fill:#FFFFFF;}
	.st4{fill:#FFDA44;}
</style>
<defs>
	<filter id="Adobe_OpacityMaskFilter" filterUnits="userSpaceOnUse" x="0" y="0" width="512" height="512">
		<feColorMatrix  type="matrix" values="1 0 0 0 0  0 1 0 0 0  0 0 1 0 0  0 0 0 1 0"/>
	</filter>
</defs>
<mask maskUnits="userSpaceOnUse" x="0" y="0" width="512" height="512" id="a_1_">
	<circle class="st0" cx="256" cy="256" r="256"/>
</mask>
<g class="st1">
	<path class="st2" d="M0,0h512v144.7L488,256l24,111.3V512H0V367.3L26,256L0,144.7V0z"/>
	<path class="st3" d="M0,144.7h512v222.6H0V144.7z"/>
	<path class="st4" d="M332.4,256l-31.2,14.7l16.7,30.3l-34-6.5l-4.2,34.3L256,303.6l-23.6,25.2l-4.3-34.3l-34,6.5l16.6-30.3
		L179.5,256l31.3-14.7L194,211l34,6.5l4.3-34.3l23.6,25.2l23.6-25.2l4.4,34.3l34-6.5l-16.7,30.3L332.4,256z"/>
</g>
</svg>
