<?xml version="1.0" encoding="utf-8"?>
<!-- Generator: Adobe Illustrator 25.2.1, SVG Export Plug-In . SVG Version: 6.00 Build 0)  -->
<svg version="1.1" id="Capa_1" xmlns="http://www.w3.org/2000/svg" xmlns:xlink="http://www.w3.org/1999/xlink" x="0px" y="0px"
	 viewBox="0 0 512 512" style="enable-background:new 0 0 512 512;" xml:space="preserve">
<style type="text/css">
	.st0{fill:#6DA544;}
	.st1{fill:#FFDA44;}
	.st2{fill:#EEEEEE;}
	.st3{fill:#0052B4;}
</style>
<g>
	<path class="st0" d="M0,0h512v144.7v222.6V512H0V367.3V144.7V0z"/>
	<path class="st1" d="M256,100.7l211.5,155.8L256,412.3L44.5,256.5L256,100.7z"/>
	<path class="st2" d="M175,220.2c-5,11.4-7.4,23.8-7.2,36.3l162,49.8c7.1-10.2,12-21.8,14.4-34C303.6,207,224.5,192,175,220.2
		L175,220.2z"/>
	<path class="st3" d="M255.7,167.5c-14.6,0-29,3.7-41.9,10.6c-17.7,9.6-31.7,24.9-39.6,43.4c61.6-13.1,125.6,6.7,169.1,52.2
		c4-20.2,0.8-41.2-9-59.4C318.8,185.4,288.5,167.4,255.7,167.5L255.7,167.5z M212,251c-15.3-0.1-30.4,2.2-45,6.8
		c0.2,14.3,3.8,28.3,10.5,40.9c23.3,43.3,77.2,59.5,120.5,36.2c0,0,0,0,0.1,0c12.2-6.6,22.7-15.9,30.7-27.3
		C300.4,272.1,257.5,251.3,212,251z"/>
</g>
</svg>
