<?xml version="1.0" encoding="utf-8"?>
<!-- Generator: Adobe Illustrator 25.2.1, SVG Export Plug-In . SVG Version: 6.00 Build 0)  -->
<svg version="1.1" id="Capa_1" xmlns="http://www.w3.org/2000/svg" xmlns:xlink="http://www.w3.org/1999/xlink" x="0px" y="0px"
	 viewBox="0 0 512 512" style="enable-background:new 0 0 512 512;" xml:space="preserve">
<style type="text/css">
	.st0{fill:#D80027;}
	.st1{fill:#FFDA44;}
	.st2{fill:#EEEEEE;}
	.st3{fill:#FF9811;}
	.st4{fill:none;}
	.st5{fill:#FFFFFF;filter:url(#Adobe_OpacityMaskFilter);}
	.st6{mask:url(#b_1_);}
	.st7{fill:#338AF3;}
</style>
<path class="st0" d="M0,0h512v512H0V0z"/>
<path class="st1" d="M0,128h512v256H0V128z"/>
<g>
	<path class="st2" d="M144,304h-16v-80h16V304z M272,304h16v-80h-16V304z"/>
	<ellipse class="st2" cx="208" cy="296" rx="48" ry="32"/>
</g>
<g>
	<path class="st0" d="M136,192L136,192c4.4,0,8,3.6,8,8v8c0,4.4-3.6,8-8,8l0,0c-4.4,0-8-3.6-8-8v-8C128,195.6,131.6,192,136,192z"/>
	<path class="st0" d="M280,192L280,192c4.4,0,8,3.6,8,8v8c0,4.4-3.6,8-8,8l0,0c-4.4,0-8-3.6-8-8v-8C272,195.6,275.6,192,280,192z"/>
	<path class="st0" d="M208,272v24c0,13.3,10.7,24,24,24s24-10.7,24-24v-24h-24H208z"/>
</g>
<g>
	<path class="st3" d="M128,208h16c4.4,0,8,3.6,8,8l0,0c0,4.4-3.6,8-8,8h-16c-4.4,0-8-3.6-8-8l0,0C120,211.6,123.6,208,128,208z"/>
	<path class="st3" d="M272,208h16c4.4,0,8,3.6,8,8l0,0c0,4.4-3.6,8-8,8h-16c-4.4,0-8-3.6-8-8l0,0C264,211.6,267.6,208,272,208z"/>
	<path class="st3" d="M128,304h16c4.4,0,8,3.6,8,8l0,0c0,4.4-3.6,8-8,8h-16c-4.4,0-8-3.6-8-8l0,0C120,307.6,123.6,304,128,304z"/>
	<path class="st3" d="M272,304h16c4.4,0,8,3.6,8,8l0,0c0,4.4-3.6,8-8,8h-16c-4.4,0-8-3.6-8-8l0,0C264,307.6,267.6,304,272,304z"/>
	<path class="st3" d="M160,272v24c0,13.3,10.7,24,24,24s24-10.7,24-24v-24h-24H160z"/>
</g>
<path d="M122,252h172 M122,276h28 M266,276h28"/>
<path class="st0" d="M122,248c-2.2,0-4,1.8-4,4s1.8,4,4,4h172c2.2,0,4-1.8,4-4s-1.8-4-4-4H122z M122,272c-2.2,0-4,1.8-4,4s1.8,4,4,4
	h28c2.2,0,4-1.8,4-4s-1.8-4-4-4H122z M266,272c-2.2,0-4,1.8-4,4s1.8,4,4,4h28c2.2,0,4-1.8,4-4s-1.8-4-4-4H266z"/>
<path class="st2" d="M196,168c-7,0-13,5-15,11l-5-1c-9,0-16,7-16,16s7,16,16,16c7,0,13-4,15-11c6,2.1,12.6,0.6,17-4
	c4.4,4.6,11,6.1,17,4c2.7,8.4,11.7,13.1,20.1,10.4c8.4-2.7,13.1-11.7,10.4-20.1c-2.7-8.4-11.7-13.1-20.1-10.4
	c-0.1,0-0.2,0.1-0.4,0.1c-3.1-8.3-12.3-12.5-20.6-9.4c-2.5,0.9-4.7,2.4-6.4,4.4C205,170,201,168,196,168z M196,176c5,0,8,4,8,8
	c0,5-3,8-8,8c-4,0-8-3-8-8C188,180,192,176,196,176z M220,176c5,0,8,4,8,8c0,5-3,8-8,8c-4,0-8-3-8-8C212,180,216,176,220,176z
	 M176,186l4,1l4,8c0,4-4,7-8,7s-8-3-8-8C168,190,172,186,176,186z M240,186c5,0,8,4,8,8c0,5-3,8-8,8c-4,0-8-3-8-7l4-8L240,186z"/>
<path class="st4" d="M220,284v12c0,7,5,12,12,12s12-5,12-12v-12H220z"/>
<path class="st3" d="M200,160h16v32h-16V160z"/>
<path class="st2" d="M208,224h48v48h-48V224z"/>
<g>
	<path class="st0" d="M248,208l-8,8h-64l-8-8c0-13,18-24,40-24S248,195,248,208z M160,224h48v48h-48V224z"/>
	<path class="st0" d="M232,232L232,232c5.5,0,10,4.5,10,10v12c0,5.5-4.5,10-10,10l0,0c-5.5,0-10-4.5-10-10v-12
		C222,236.5,226.5,232,232,232z"/>
	<defs>
		<filter id="Adobe_OpacityMaskFilter" filterUnits="userSpaceOnUse" x="170" y="272" width="29" height="48">
			<feColorMatrix  type="matrix" values="1 0 0 0 0  0 1 0 0 0  0 0 1 0 0  0 0 0 1 0"/>
		</filter>
	</defs>
	<mask maskUnits="userSpaceOnUse" x="170" y="272" width="29" height="48" id="b_1_">
		<path class="st5" d="M160,272v24c0,13.3,10.7,24,24,24s24-10.7,24-24v-24h-24H160z"/>
	</mask>
	<g class="st6">
		<path class="st0" d="M170,272h10v48h-10V272z M189,272h10v48h-10V272z"/>
	</g>
</g>
<path class="st3" d="M168,232v8h8v16h-8v8h32v-8h-8v-16h8v-8H168z M176,216h64v8h-64V216z"/>
<g>
	<circle class="st1" cx="186" cy="202" r="6"/>
	<circle class="st1" cx="208" cy="202" r="6"/>
	<circle class="st1" cx="230" cy="202" r="6"/>
</g>
<g>
	<circle class="st7" cx="208" cy="272" r="16"/>
	<path class="st7" d="M272,320h16c4.4,0,8,3.6,8,8l0,0c0,4.4-3.6,8-8,8h-16c-4.4,0-8-3.6-8-8l0,0C264,323.6,267.6,320,272,320z"/>
	<path class="st7" d="M128,320h16c4.4,0,8,3.6,8,8l0,0c0,4.4-3.6,8-8,8h-16c-4.4,0-8-3.6-8-8l0,0C120,323.6,123.6,320,128,320z"/>
</g>
</svg>
