<?xml version="1.0" encoding="utf-8"?>
<!-- Generator: Adobe Illustrator 25.2.1, SVG Export Plug-In . SVG Version: 6.00 Build 0)  -->
<svg version="1.1" id="Capa_1" xmlns="http://www.w3.org/2000/svg" xmlns:xlink="http://www.w3.org/1999/xlink" x="0px" y="0px"
	 viewBox="0 0 512 512" style="enable-background:new 0 0 512 512;" xml:space="preserve">
<style type="text/css">
	.st0{fill:#EEEEEE;}
	.st1{fill:#0052B4;}
	.st2{fill:#D80027;}
</style>
<path class="st0" d="M0,0h47.4l76.4,21l65.4-21h33.4l34.2,16.6L289.4,0h33.4l70.4,22.8L464.8,0h15.8l12.2,7.3L512,0v47.3l-19.9,78
	l19.9,63.9v33.4l-16.4,30.6l16.4,36.2v33.4l-15.1,68.7l15.1,73.3v15.9l-7.8,10.9L512,512h-47.3l-71-17.5L322.8,512h-33.4l-30-19.7
	L222.6,512h-33.3l-63.7-20.2L47.3,512H31.4l-10.6-8L0,512v-47.3l22.8-79L0,322.9v-33.4l25.3-32L0,222.6v-33.4l22.2-64.6L0,47.2V31.4
	l8-7.8L0,0z"/>
<path class="st1" d="M47.4,0l141.8,142V0H47.4z M322.8,0v142l142-142H322.8z M0,47.2v142h142L0,47.2z M512,47.3L370.1,189.2H512
	V47.3z M0,322.8v141.9l141.9-141.9H0z M370,322.8l142,142v-142H370z M189.3,370l-142,142h142V370z M322.8,370.1V512h141.9
	L322.8,370.1z"/>
<path class="st2" d="M222.6,0v222.6H0v66.8h222.6V512h66.8V289.4H512v-66.8H289.4V0H222.6L222.6,0z"/>
<path class="st2" d="M0,0v31.4l157.7,157.8h31.5L0,0z M480.6,0L322.8,157.7v31.5L512,0H480.6z M189.2,322.8L0,512h31.4l157.8-157.7
	V322.8z M322.8,322.8L511.9,512h0.1v-31.3L354.3,322.8H322.8z"/>
</svg>
