<?xml version="1.0" encoding="utf-8"?>
<!-- Generator: Adobe Illustrator 25.2.1, SVG Export Plug-In . SVG Version: 6.00 Build 0)  -->
<svg version="1.1" id="Capa_1" xmlns="http://www.w3.org/2000/svg" xmlns:xlink="http://www.w3.org/1999/xlink" x="0px" y="0px"
	 viewBox="0 0 512 512" style="enable-background:new 0 0 512 512;" xml:space="preserve">
<style type="text/css">
	.st0{fill:#496E2D;}
	.st1{fill:#EEEEEE;}
</style>
<path class="st0" d="M0,0h512v512H0V0z"/>
<g>
	<path class="st1" d="M144.7,306c0,18.5,15,33.5,33.4,33.5h100.2c0,15.4,12.4,27.8,27.8,27.8h33.4c15.4,0,27.8-12.4,27.8-27.8V306
		H144.7z M370.1,144.7v78c0,12.2-10,22.2-22.3,22.2v33.4c30.7,0,55.7-25,55.7-55.7v-77.9L370.1,144.7L370.1,144.7z M130.8,222.7
		c0,12.2-10,22.2-22.3,22.2v33.4c30.7,0,55.7-25,55.7-55.7v-77.9h-33.4L130.8,222.7z"/>
	<path class="st1" d="M320,144.7h33.4v78H320V144.7z M270,189.2c0,3.1-2.5,5.6-5.6,5.6s-5.6-2.5-5.6-5.6v-44.5h-33.4v44.5
		c-0.4,3.1-3.2,5.2-6.3,4.8c-2.5-0.3-4.5-2.3-4.8-4.8v-44.5h-33.4v44.5c0,21.5,17.5,39,39,39c7.9,0,15.7-2.4,22.2-7
		c6.5,4.6,14.3,7,22.2,7c1.7,0,3.4-0.1,5-0.3c-2.4,10-11.3,17-21.6,17v33.4c30.6,0,55.6-25,55.6-55.7v-77.9H270V189.2z"/>
	<path class="st1" d="M180.9,244.9h50v33.4h-50V244.9z"/>
</g>
</svg>
