<?xml version="1.0" encoding="utf-8"?>
<!-- Generator: Adobe Illustrator 25.2.1, SVG Export Plug-In . SVG Version: 6.00 Build 0)  -->
<svg version="1.1" id="Capa_1" xmlns="http://www.w3.org/2000/svg" xmlns:xlink="http://www.w3.org/1999/xlink" x="0px" y="0px"
	 viewBox="0 0 512 512" style="enable-background:new 0 0 512 512;" xml:space="preserve">
<style type="text/css">
	.st0{fill:#FFFFFF;filter:url(#Adobe_OpacityMaskFilter);}
	.st1{mask:url(#a_1_);}
	.st2{fill:#EEEEEE;}
	.st3{fill:#D80027;}
	.st4{fill:#0052B4;}
</style>
<defs>
	<filter id="Adobe_OpacityMaskFilter" filterUnits="userSpaceOnUse" x="-20" y="0" width="532" height="512">
		<feColorMatrix  type="matrix" values="1 0 0 0 0  0 1 0 0 0  0 0 1 0 0  0 0 0 1 0"/>
	</filter>
</defs>
<mask maskUnits="userSpaceOnUse" x="-20" y="0" width="532" height="512" id="a_1_">
	<circle class="st0" cx="256" cy="256" r="256"/>
</mask>
<g class="st1">
	<path class="st2" d="M0,256L256,0h256v55.7l-20.7,34.5l20.7,32.2v66.8l-21.2,32.7L512,256v66.8l-24,31.7l24,35.1v66.7l-259.1,28.3
		L0,456.3v-66.7l27.1-33.3L0,322.8V256z"/>
	<path class="st3" d="M256,256h256v-66.8H236.9L256,256z M236.9,122.4H512V55.7H236.9V122.4z M512,512v-55.7H0V512H512z M0,389.6
		h512v-66.8H0V389.6z"/>
	<path class="st4" d="M0,0h256v256H0V0z"/>
	<path class="st2" d="M15,14.5L6.9,40H-20L1.7,55.8l-8.3,25.5L15,65.5l21.6,15.8l-8.2-25.4L50.2,40H23.4L15,14.5z M106.8,14.5
		L98.5,40H71.7l21.7,15.8l-8.3,25.5l21.7-15.8l21.7,15.8l-8.3-25.4L142,40h-26.8L106.8,14.5z M198.7,14.5l-8.3,25.6h-26.8l21.7,15.8
		L177,81.4l21.7-15.8l21.6,15.7L212.1,56l21.7-16H207L198.7,14.5z M15,89.2l-8.3,25.5H-20l21.7,15.8L-6.6,156L15,140l21.6,15.7
		l-8.2-25.3l21.7-16H23.4L15,89.2z M106.8,89.2l-8.3,25.5H71.8l21.7,15.8L85.2,156l21.7-15.8l21.6,15.7l-8.2-25.3l21.7-16h-26.8
		L106.8,89.2z M198.6,89.2l-8.3,25.5h-26.8l21.7,15.8l-8.3,25.5l21.7-15.8l21.6,15.7l-8.2-25.3l21.7-16H207L198.6,89.2z M15,163.6
		l-8.3,25.5H-20L1.6,205l-8.3,25.5L15,214.6l21.7,15.8L28.4,205l21.7-15.9H23.3L15,163.6z M106.8,163.6l-8.3,25.5H71.7L93.4,205
		l-8.3,25.5l21.7-15.8l21.7,15.8l-8.3-25.4l21.7-15.9h-26.8L106.8,163.6z M198.6,163.6l-8.3,25.5h-26.8l21.7,15.8l-8.3,25.5
		l21.7-15.8l21.7,15.8L212,205l21.7-15.9H207L198.6,163.6z"/>
</g>
</svg>
