<?xml version="1.0" encoding="utf-8"?>
<!-- Generator: Adobe Illustrator 25.2.1, SVG Export Plug-In . SVG Version: 6.00 Build 0)  -->
<svg version="1.1" id="Capa_1" xmlns="http://www.w3.org/2000/svg" xmlns:xlink="http://www.w3.org/1999/xlink" x="0px" y="0px"
	 viewBox="0 0 9141 2746.6" style="enable-background:new 0 0 9141 2746.6;" xml:space="preserve">
<style type="text/css">
	.st0{fill:#003C70;}
</style>
<path class="st0" d="M7837.6,0h29.7c35.6,22.9,49.4,65.4,68.6,100.5C8206,606.9,8477,1113.3,8747.5,1620.1
	c130.7,246.8,264.1,492.2,393.5,739.4v5c-7.8,13.7-13.7,35.6-33.8,33.8c-131.6,0.5-263.2,0.5-394.4,0c-31.5,1.4-40.2-33.4-52.1-55.3
	c-23.8-45.2-49.8-89.6-71.3-136.2c-37-62.6-65.8-129.3-102.8-191.9c-28.3-61.7-64.9-119.3-93.7-181c-17.8-37.5-40.7-71.7-58.5-109.2
	c-26-55.8-59.4-106.9-84.5-163.2c-37.9-65.8-69.5-134.8-107.4-200.6c-26.5-59-62.2-113.3-89.1-172.3
	c-18.7-40.7-43.9-77.7-62.6-118.4c-24.2-52.6-56.7-101-80-154.5c-11.4-20.6-19.7-49.4-43.9-57.6c-15.5-1.4-37.5-5-46.6,11.4
	c-41.1,65.8-70.8,137.6-110.6,204.3c-28.3,61.7-65.4,119.3-93.7,181c-16.9,36.1-38.8,69-56.2,104.7c-12.8,27-26,53.5-41.1,79.5
	c-27,45.7-46.2,95.1-73.6,140.8c-23.8,39.8-40.7,83.2-64.4,122.9c-25.1,41.1-42.5,85.9-67.2,127.5c-28.3,47.1-48,98.3-76.3,144.9
	c-23.8,39.8-40.7,83.2-64.4,122.9c-25.1,41.1-42.5,85.9-67.2,127.5c-26.5,44.3-45.7,91.9-70.8,136.6c-8.7,13.3-16.5,30.2-33.4,33.8
	c-25.6,4.6-52.1,1.8-78.1,2.3c-100.5,0-201.1-0.5-301.6,0.5c-18.3-0.5-40.2,0-52.6-15.5c-3.7-16.9-2.3-35.6,6.9-50.7
	C6985.8,1563.9,7396.6,795.6,7807,27C7815.2,15.1,7826.7,7.3,7837.6,0L7837.6,0z M0,369.3c28.3-29.7,70.8-20.1,106.9-21
	c366.1,0,732.1,0,1098.2,0c107.9-3.7,216.6,12.8,317.6,50.3c170,61.2,316.7,197.9,371.5,372.5c24.2,66.3,29.7,137.1,34.7,207
	c-4.6,74.5-13.7,150.4-41.6,220.3c-33.8,81.8-82.7,160.4-155.4,213c-17.4,16.9-44.8,24.2-57.6,45.2c96.9,35.2,180.1,101,243.1,181.9
	c103.3,135.3,132.1,314,114.3,479.4c-9.1,109.2-40.7,218-97.8,312.1c-37.9,58.5-85,112-142.1,153.1
	c-124.8,92.3-278.8,135.3-431,152.6c-31.1,4.1-63.1,1.8-93.7,10.5H27.9c-10.5-8.2-20.1-17.4-27.9-28.3V369.3 M410.8,712.5
	c-11.9,14.2-8.7,33.8-9.1,51.2c0.9,177.8-1.8,356,1.4,533.8c11,13.7,27.9,22.9,45.2,21.9c236.7,0,473.5-0.5,710.2,0.5
	c32.9,1.4,65.4-5.5,97.8-10.1c73.6-10.5,147.2-39.8,198.8-95.5c35.2-35.2,51.2-83.6,63.1-130.2c2.7-37.9,15.1-76.3,4.6-114.3
	c-5-64-31.1-126.6-74.5-174.1c-60.8-55.3-142.6-81.8-222.6-91.4c-25.6-2.7-51.6,1.4-77.2-3.7c-31.5-6.9-64.4-3.7-96.4-4.1
	c-194.2,0-388.5,0-582.7-0.5C448.3,696.5,428.2,702,410.8,712.5 M424.1,1676.8c-7.8,2.3-15.5,7.3-17.8,15.5
	c-14.2,27.4-11.4,59.4-11,89.6c0.5,183.3,0,366.5,0,549.3c0.5,26,15.1,63.5,46.6,59.9c250,0,500,0,750.4,0c25.1,0.9,50.3,0,74.9-4.6
	c88.2-7.3,179.1-25.1,253.2-75.9c59.4-42,92.3-112,105.1-182.3c16.9-81.3,10.5-165.9-12.8-245.4c-21-61.2-62.6-116.5-121.1-146.2
	c-77.2-42.5-165.9-55.3-252.3-62.6c-263.7,0-526.9,0-790.6,0C440.1,1674.5,432.3,1675.4,424.1,1676.8L424.1,1676.8z M2440.4,350.1
	c27.9-4.6,56.2-1.4,84.5-1.8c388.5,0,776.9,0,1165.4,0c175.5,9.1,354.2,70.4,480.8,195.6c96.4,95.5,154.5,226.2,168.6,360.1
	c-0.5,53,2.3,106.5-1.4,159.5c-16.5,113.8-61.2,228.5-147.2,308.5c-24.2,25.6-50.7,48.9-81.3,66.3c-6.4,5.5-19.7,8.2-16,18.7
	c98.7,40.2,187.4,107.4,249.1,195.1c26.5,36.1,45.2,76.8,63.5,117.5c36.1,81.8,43,172.3,48.4,260.5c-4.6,68.1-8.7,137.1-24.7,203.8
	c-23.8,116.1-84.1,223.9-168.6,307.1c-34.3,28.3-69.5,57.1-107.9,79.5c-109.2,66.7-236.3,97.8-361.9,114.3
	c-35.2,5.9-71.3,2.7-106,11.9H2447.3c-19.2-11.4-37.9-28.8-35.6-53.5c0-763.7,0-1527.8,0-2291.4
	C2409.8,380.7,2422.6,361,2440.4,350.1 M2855.4,699.2c-12.8,3.2-27,7.8-33.8,20.1c-11.9,16.9-8.7,38.8-9.1,58
	c0.5,163.2,0,326.3,0,489c-0.9,21,12.8,39.8,29.2,51.6c48,4.1,96.9,0.5,144.9,1.8c205.7,0,410.8,0.5,616.5,0
	c69-7.8,140.3-16.9,200.6-53.5c62.2-27.9,101.5-88.7,122.9-151.3c16-50.7,10.5-104.7,10.5-156.8c-4.6-37-16.5-73.6-33.4-106.9
	c-48.4-82.7-141.2-128.4-233.5-142.1c-36.1-9.1-74-1.8-110.6-9.1c-27.9-5.5-56.2-2.7-84.1-3.2c-198.8,0-397.6,0-596.4-0.5
	C2871.4,696.5,2863.1,697.4,2855.4,699.2 M2841.7,1677.2c-20.1,4.6-30.2,25.6-28.8,44.3c0,191.9,0,384.3,0,576.3
	c0.5,24.7-2.3,49.8,7.3,73.1c4.6,16.5,24.7,20.1,39.8,20.6c254.6,0.5,509.1-0.5,763.7,0.5c33.8,1.8,66.7-6.9,100.1-8.7
	c85.9-10.5,173.7-35.6,239.9-93.7c52.1-52.6,77.7-126.1,83.2-198.8c6.9-36.1,8.2-73.1,0.9-109.2c-6.4-81.8-35.2-168.6-102.8-219.8
	c-81.8-63.1-187.8-77.7-287.9-87.3c-254.6,0-509.1,0-763.7,0C2875.9,1675.4,2858.6,1673.6,2841.7,1677.2L2841.7,1677.2z M4469.1,399
	c-12.3-24.7,11.9-53.9,37.9-51.2c125.2,0,250.4,0.5,375.2-0.5c14.6-0.9,30.6,1.4,38.4,15.5c29.7,45.7,53.5,94.6,77.7,143.5
	c15.1,31.1,34.3,60.3,49.4,91.4c27.9,60.3,64,116.1,91.4,176.4c37,62.6,65.8,129.3,102.8,191.9c31.5,67.6,71.3,131.2,102.4,198.8
	c27,47.5,51.6,96,76.3,144.9c31.1,50.7,53,106,83.6,156.8c21.5,37.5,37.5,77.7,59.9,114.7c28.3,46.6,48,98.3,76.3,144.9
	c27.9,47.1,47.1,98.7,76.8,144.4c13.3,25.1,57.6,25.6,71.3,0c29.7-45.7,48.9-97.3,76.8-144.4c25.1-41.1,42.5-85.9,67.2-127
	c28.3-47.1,48-98.3,76.3-144.9c27.9-48.9,49.4-100.5,79.1-148.5c34.3-71.7,75.9-139.8,109.7-212.1c27.9-47.1,51.2-96.4,76.3-144.9
	c29.7-48,50.3-100.5,79.1-148.5c25.1-43,43.4-89.6,68.6-132.1c25.6-42.5,43.9-89.1,69.5-131.6c34.3-58,56.7-123.4,97.3-177.3
	c9.1-14.2,27.4-11,42-11.9c122.9,1.4,245.9,0,368.8,0.5c16.9-1.8,30.6,9.1,38.8,23.3c7.8,23.3-9.1,44.3-19.7,63.1
	c-390.7,730.3-780.6,1461-1170.8,2191.8c-22.4,41.6-41.1,87.3-75.9,120.6h-29.2c-44.3-27.9-59.4-81.8-84.5-125.2
	C5260.6,1881,4865.3,1139.8,4469.1,399L4469.1,399z"/>
</svg>
