<?xml version="1.0" encoding="utf-8"?>
<!-- Generator: Adobe Illustrator 25.2.1, SVG Export Plug-In . SVG Version: 6.00 Build 0)  -->
<svg version="1.1" id="Capa_1" xmlns="http://www.w3.org/2000/svg" xmlns:xlink="http://www.w3.org/1999/xlink" x="0px" y="0px"
	 viewBox="0 0 470.6 470.6" style="enable-background:new 0 0 470.6 470.6;" xml:space="preserve">
<style type="text/css">
	.st0{fill:#1A1E21;}
</style>
<g>
	<path class="st0" d="M143.9,197.8l91.4-91.4l91.4,91.4l53.2-53.2L235.3,0L90.7,144.6L143.9,197.8z"/>
	<path class="st0" d="M0,235.3l53.2-53.2l53.2,53.2l-53.2,53.2L0,235.3z"/>
	<path class="st0" d="M143.9,272.8l91.4,91.4l91.4-91.4l53.2,53.2l0,0L235.3,470.6L90.7,326l0,0L143.9,272.8z"/>
	<path class="st0" d="M364.3,235.3l53.2-53.2l53.2,53.2l-53.2,53.2L364.3,235.3z"/>
	<path class="st0" d="M289.2,235.3l-53.9-53.9l-39.8,39.8l-4.5,4.5l-9.3,9.3l0,0l0,0l53.9,53.9L289.2,235.3L289.2,235.3L289.2,235.3
		z"/>
</g>
</svg>
