<?xml version="1.0" encoding="utf-8"?>
<!-- Generator: Adobe Illustrator 25.2.1, SVG Export Plug-In . SVG Version: 6.00 Build 0)  -->
<svg version="1.1" id="Capa_1" xmlns="http://www.w3.org/2000/svg" xmlns:xlink="http://www.w3.org/1999/xlink" x="0px" y="0px"
	 viewBox="0 0 25.6 37.1" style="enable-background:new 0 0 25.6 37.1;" xml:space="preserve">
<style type="text/css">
	.st0{filter:url(#Adobe_OpacityMaskFilter);}
	.st1{fill-rule:evenodd;clip-rule:evenodd;fill:#FFFFFF;}
	.st2{mask:url(#b_1_);fill-rule:evenodd;clip-rule:evenodd;fill:#5641C4;}
</style>
<g>
	<g transform="translate(0 .003)">
		<defs>
			<filter id="Adobe_OpacityMaskFilter" filterUnits="userSpaceOnUse" x="0.1" y="0" width="25.5" height="37.1">
				<feColorMatrix  type="matrix" values="1 0 0 0 0  0 1 0 0 0  0 0 1 0 0  0 0 0 1 0"/>
			</filter>
		</defs>
		<mask maskUnits="userSpaceOnUse" x="0.1" y="0" width="25.5" height="37.1" id="b_1_">
			<g class="st0">
				<path id="a_1_" class="st1" d="M0.1,0h25.5v37.1H0.1V0z"/>
			</g>
		</mask>
		<path class="st2" d="M12.8,29.8c-3.2,0-5.8-2.7-5.8-6s2.6-6,5.8-6c3.2,0,5.8,2.7,5.8,6S16,29.8,12.8,29.8 M12.8,10.4
			c-1.9,0-3.8,0.4-5.5,1.3L7,11.9V3.6C7,1.6,5.5,0,3.5,0C1.6,0,0.1,1.6,0.1,3.6v20.1c0,7.3,5.7,13.3,12.8,13.3c7,0,12.8-6,12.8-13.3
			C25.6,16.4,19.9,10.4,12.8,10.4"/>
	</g>
</g>
</svg>
