<?xml version="1.0" encoding="utf-8"?>
<!-- Generator: Adobe Illustrator 25.2.1, SVG Export Plug-In . SVG Version: 6.00 Build 0)  -->
<svg version="1.1" id="layer" xmlns="http://www.w3.org/2000/svg" xmlns:xlink="http://www.w3.org/1999/xlink" x="0px" y="0px"
	 viewBox="0 0 222.1 143.8" style="enable-background:new 0 0 222.1 143.8;" xml:space="preserve">
<style type="text/css">
	.st0{fill:#0193CF;}
</style>
<g id="Layer_2">
	<g id="Layer_1-2">
		<path class="st0" d="M143.8,111.1C143.4,93,128.4,78.6,110.2,79c-17.5,0.4-31.7,14.5-32.1,32.1H143.8z"/>
		<path class="st0" d="M143.8,111.1c-0.4,18.1-15.4,32.5-33.6,32.1c-17.5-0.4-31.7-14.5-32.1-32.1H143.8z"/>
		<path class="st0" d="M182.7,111.1c-0.6-39.6-33.2-71.2-72.8-70.6c-38.7,0.6-70,31.9-70.6,70.6h33c0.4-21.4,18.2-38.4,39.6-37.9
			c20.8,0.4,37.5,17.2,37.9,37.9H182.7z"/>
		<path class="st0" d="M221.5,111.1C221.5,50.1,172,0.6,111,0.6S0.6,50,0.6,111.1h32.8c0-42.9,34.7-77.7,77.6-77.7
			s77.7,34.7,77.7,77.6l0,0h32.8V111.1z"/>
	</g>
</g>
</svg>
