<?xml version="1.0" encoding="utf-8"?>
<!-- Generator: Adobe Illustrator 25.2.1, SVG Export Plug-In . SVG Version: 6.00 Build 0)  -->
<svg version="1.1" id="Capa_1" xmlns="http://www.w3.org/2000/svg" xmlns:xlink="http://www.w3.org/1999/xlink" x="0px" y="0px"
	 viewBox="0 0 970.4 512.2" style="enable-background:new 0 0 970.4 512.2;" xml:space="preserve">
<style type="text/css">
	.st0{fill:#DB424B;}
</style>
<g id="surface1">
	<path class="st0" d="M761.4,107.4c-64.3-14.2-101.6,21.6-134.9,63.5c-30.1,37.9-51.6,81.3-75.2,123.4
		c-27.5,49.2-59,95.6-97.7,136.8c-46.2,49.4-129.3,58.8-191.7,21.7c-20.1-11.9-39.6-24.7-53.6-48.5c61.8,16.7,94-23.4,126.6-60.7
		c40.1-45.9,68.3-99.8,98.6-152.2c23.2-40.3,50.9-77.4,83.1-111.2C562,32.8,642.8,22.7,705.5,57.9
		C726.5,69.7,746.2,83.3,761.4,107.4"/>
	<path class="st0" d="M337.6,499.8c-113,34.9-237-5.8-294.3-96.2C10.4,351.7-3.1,294.5,0.6,233.4c2.1-35.9,35.1-66.1,70.7-66.2
		c41.8-0.2,73.5,30.9,74.1,73c0.7,49.8,4.6,98.6,25.2,145.3c25.3,57.3,99.4,110.7,156,106.8C331.1,491.9,334.4,494.7,337.6,499.8"/>
	<g>
		<g>
			<path class="st0" d="M633.9,12.6C653.5,2.9,674.5,1.2,695,0.3C751.4-2,805.7,8.1,854.5,37.9c56.7,34.7,90,86.8,106,150.3
				c7.7,30.7,12.8,62,8.1,93.8c-5.6,37.3-38.2,64.6-73.6,62.8c-39.6-2.1-68.7-30.4-70.3-70.1c-1.8-44.6-2-89.3-18.8-131.6
				C777.4,71.3,724.3,30,648.5,17.3C643.8,16.5,638.5,17.4,633.9,12.6"/>
		</g>
	</g>
</g>
</svg>
